<svg xmlns="http://www.w3.org/2000/svg" xmlns:xlink="http://www.w3.org/1999/xlink" width="500" zoomAndPan="magnify" viewBox="0 0 375 374.999991" height="500" preserveAspectRatio="xMidYMid meet" version="1.0"><defs><g/><clipPath id="6ca7d78c93"><path d="M 183 43.964844 L 195 43.964844 L 195 59 L 183 59 Z M 183 43.964844 " clip-rule="nonzero"/></clipPath><clipPath id="839f540df2"><path d="M 117.09375 171 L 258 171 L 258 193.964844 L 117.09375 193.964844 Z M 117.09375 171 " clip-rule="nonzero"/></clipPath></defs><rect x="-37.5" width="450" fill="#ffffff" y="-37.499999" height="449.999989" fill-opacity="1"/><rect x="-37.5" width="450" fill="#ffffff" y="-37.499999" height="449.999989" fill-opacity="1"/><path fill="#00a63d" d="M 187.457031 58.207031 C 187.5 58.207031 187.5 58.25 187.542969 58.25 Z M 187.457031 58.207031 " fill-opacity="1" fill-rule="nonzero"/><path fill="#00a63d" d="M 188.933594 64.554688 C 176.851562 64.554688 167.074219 74.332031 167.074219 86.414062 C 167.074219 98.496094 176.851562 108.273438 188.933594 108.273438 C 201.015625 108.273438 210.792969 98.496094 210.792969 86.414062 C 210.792969 74.375 201.015625 64.554688 188.933594 64.554688 Z M 197.367188 84.9375 L 188.238281 99.234375 C 187.71875 100.015625 186.542969 99.667969 186.675781 98.800781 L 187.847656 90.109375 C 187.933594 89.628906 187.585938 89.238281 187.109375 89.238281 L 181.109375 89.238281 C 180.460938 89.238281 180.113281 88.542969 180.503906 87.976562 L 189.628906 73.722656 C 190.152344 72.941406 191.324219 73.289062 191.195312 74.15625 L 190.019531 82.851562 C 189.933594 83.328125 190.28125 83.71875 190.757812 83.71875 L 196.757812 83.71875 C 197.410156 83.675781 197.757812 84.371094 197.367188 84.9375 Z M 197.367188 84.9375 " fill-opacity="1" fill-rule="nonzero"/><path fill="#00a63d" d="M 163.640625 99.234375 L 160.859375 90.324219 C 160.726562 89.890625 160.207031 89.714844 159.859375 89.976562 L 148.691406 98.363281 C 148.210938 98.757812 148.429688 99.539062 149.039062 99.539062 L 163.03125 100.105469 C 163.421875 100.105469 163.769531 99.667969 163.640625 99.234375 Z M 163.640625 99.234375 " fill-opacity="1" fill-rule="nonzero"/><path fill="#00a63d" d="M 159.945312 82.199219 C 160.292969 82.457031 160.816406 82.328125 160.988281 81.894531 L 163.988281 73.027344 C 164.117188 72.59375 163.8125 72.160156 163.335938 72.160156 L 149.339844 72.375 C 148.734375 72.375 148.472656 73.15625 148.949219 73.550781 Z M 159.945312 82.199219 " fill-opacity="1" fill-rule="nonzero"/><path fill="#00a63d" d="M 168.941406 66.335938 L 176.589844 60.945312 C 176.9375 60.683594 176.9375 60.121094 176.589844 59.859375 L 165.160156 51.820312 C 164.640625 51.472656 163.988281 51.949219 164.160156 52.515625 L 167.941406 65.988281 C 168.074219 66.421875 168.59375 66.59375 168.941406 66.335938 Z M 168.941406 66.335938 " fill-opacity="1" fill-rule="nonzero"/><g clip-path="url(#6ca7d78c93)"><path fill="#00a63d" d="M 184.589844 58.425781 L 193.933594 58.554688 C 194.367188 58.554688 194.714844 58.121094 194.539062 57.6875 L 190.019531 44.429688 C 189.804688 43.867188 188.976562 43.820312 188.804688 44.429688 L 183.980469 57.554688 C 183.804688 57.988281 184.152344 58.425781 184.589844 58.425781 Z M 184.589844 58.425781 " fill-opacity="1" fill-rule="nonzero"/></g><path fill="#00a63d" d="M 209.359375 66.8125 C 209.707031 67.074219 210.230469 66.898438 210.359375 66.464844 L 214.488281 53.121094 C 214.664062 52.515625 214.011719 52.035156 213.488281 52.382812 L 201.886719 60.164062 C 201.496094 60.425781 201.496094 60.945312 201.84375 61.25 Z M 209.359375 66.8125 " fill-opacity="1" fill-rule="nonzero"/><path fill="#00a63d" d="M 228.832031 73.375 L 214.835938 72.808594 C 214.402344 72.808594 214.054688 73.246094 214.183594 73.679688 L 216.964844 82.589844 C 217.097656 83.023438 217.617188 83.199219 217.964844 82.9375 L 229.136719 74.546875 C 229.699219 74.15625 229.484375 73.375 228.832031 73.375 Z M 228.832031 73.375 " fill-opacity="1" fill-rule="nonzero"/><path fill="#00a63d" d="M 217.921875 90.671875 C 217.574219 90.410156 217.054688 90.542969 216.878906 90.976562 L 213.878906 99.84375 C 213.75 100.277344 214.054688 100.710938 214.53125 100.710938 L 228.527344 100.496094 C 229.136719 100.496094 229.394531 99.710938 228.917969 99.320312 Z M 217.921875 90.671875 " fill-opacity="1" fill-rule="nonzero"/><path fill="#00a63d" d="M 138.128906 117.183594 L 130.871094 135.175781 L 155.207031 135.175781 L 159.207031 117.183594 Z M 138.128906 117.183594 " fill-opacity="1" fill-rule="nonzero"/><path fill="#00a63d" d="M 163.988281 117.183594 L 160.46875 135.175781 L 184.847656 135.175781 L 185.109375 117.183594 Z M 163.988281 117.183594 " fill-opacity="1" fill-rule="nonzero"/><path fill="#00a63d" d="M 214.53125 135.175781 L 211.011719 117.183594 L 189.890625 117.183594 L 190.152344 135.175781 Z M 214.53125 135.175781 " fill-opacity="1" fill-rule="nonzero"/><path fill="#00a63d" d="M 244.128906 135.175781 L 236.871094 117.183594 L 215.792969 117.183594 L 219.792969 135.175781 Z M 244.128906 135.175781 " fill-opacity="1" fill-rule="nonzero"/><path fill="#00a63d" d="M 128.828125 140.21875 L 118.007812 166.945312 L 148.082031 166.945312 L 154.078125 140.21875 Z M 128.828125 140.21875 " fill-opacity="1" fill-rule="nonzero"/><path fill="#00a63d" d="M 159.511719 140.21875 L 154.296875 166.945312 L 184.414062 166.945312 L 184.804688 140.21875 Z M 159.511719 140.21875 " fill-opacity="1" fill-rule="nonzero"/><path fill="#00a63d" d="M 220.703125 166.945312 L 215.488281 140.21875 L 190.195312 140.21875 L 190.585938 166.945312 Z M 220.703125 166.945312 " fill-opacity="1" fill-rule="nonzero"/><path fill="#00a63d" d="M 256.992188 166.945312 L 246.171875 140.21875 L 220.921875 140.21875 L 226.917969 166.945312 Z M 256.992188 166.945312 " fill-opacity="1" fill-rule="nonzero"/><g clip-path="url(#839f540df2)"><path fill="#00a63d" d="M 257.90625 171.855469 L 117.09375 171.855469 L 117.09375 178.722656 L 131.042969 178.722656 L 131.042969 193.933594 L 140.214844 193.933594 L 140.214844 178.722656 L 234.785156 178.722656 L 234.785156 193.933594 L 243.957031 193.933594 L 243.957031 178.722656 L 257.90625 178.722656 Z M 257.90625 171.855469 " fill-opacity="1" fill-rule="nonzero"/></g><g fill="#00a63d" fill-opacity="1"><g transform="translate(66.979834, 252.335417)"><g><path d="M 22.890625 0.609375 C 18.828125 0.609375 15.296875 -0.3125 12.296875 -2.15625 C 9.304688 -4.007812 7 -6.628906 5.375 -10.015625 C 3.75 -13.410156 2.9375 -17.414062 2.9375 -22.03125 C 2.9375 -26.726562 3.789062 -30.789062 5.5 -34.21875 C 7.207031 -37.644531 9.59375 -40.285156 12.65625 -42.140625 C 15.71875 -44.003906 19.296875 -44.9375 23.390625 -44.9375 C 26.023438 -44.9375 28.421875 -44.515625 30.578125 -43.671875 C 32.742188 -42.835938 34.628906 -41.691406 36.234375 -40.234375 C 37.835938 -38.785156 39.09375 -37.144531 40 -35.3125 C 40.914062 -33.488281 41.414062 -31.597656 41.5 -29.640625 L 32.0625 -29.640625 C 31.789062 -31.046875 31.257812 -32.332031 30.46875 -33.5 C 29.6875 -34.664062 28.679688 -35.597656 27.453125 -36.296875 C 26.234375 -37.003906 24.804688 -37.359375 23.171875 -37.359375 C 21.210938 -37.359375 19.4375 -36.851562 17.84375 -35.84375 C 16.25 -34.832031 14.988281 -33.222656 14.0625 -31.015625 C 13.144531 -28.804688 12.6875 -25.894531 12.6875 -22.28125 C 12.6875 -19.363281 12.988281 -16.929688 13.59375 -14.984375 C 14.195312 -13.046875 15.007812 -11.507812 16.03125 -10.375 C 17.050781 -9.238281 18.210938 -8.4375 19.515625 -7.96875 C 20.828125 -7.5 22.164062 -7.265625 23.53125 -7.265625 C 24.84375 -7.265625 26.015625 -7.484375 27.046875 -7.921875 C 28.078125 -8.359375 28.957031 -8.925781 29.6875 -9.625 C 30.425781 -10.320312 31.007812 -11.082031 31.4375 -11.90625 C 31.875 -12.726562 32.148438 -13.539062 32.265625 -14.34375 L 32.609375 -17.046875 L 23.453125 -17.046875 L 23.453125 -23.234375 L 41.984375 -23.140625 L 41.984375 0 L 35.890625 0 L 35.890625 -5.796875 C 35.128906 -4.796875 34.191406 -3.796875 33.078125 -2.796875 C 31.972656 -1.804688 30.597656 -0.988281 28.953125 -0.34375 C 27.304688 0.289062 25.285156 0.609375 22.890625 0.609375 Z M 22.890625 0.609375 "/></g></g></g><g fill="#00a63d" fill-opacity="1"><g transform="translate(111.965812, 252.335417)"><g><path d="M 17.4375 0.609375 C 14.332031 0.609375 11.628906 -0.0507812 9.328125 -1.375 C 7.035156 -2.707031 5.257812 -4.585938 4 -7.015625 C 2.738281 -9.453125 2.109375 -12.332031 2.109375 -15.65625 C 2.109375 -18.988281 2.738281 -21.898438 4 -24.390625 C 5.257812 -26.890625 7.035156 -28.832031 9.328125 -30.21875 C 11.628906 -31.601562 14.34375 -32.296875 17.46875 -32.296875 C 20.59375 -32.296875 23.300781 -31.617188 25.59375 -30.265625 C 27.882812 -28.910156 29.648438 -26.984375 30.890625 -24.484375 C 32.140625 -21.992188 32.765625 -19.050781 32.765625 -15.65625 C 32.765625 -12.46875 32.15625 -9.65625 30.9375 -7.21875 C 29.71875 -4.78125 27.96875 -2.863281 25.6875 -1.46875 C 23.414062 -0.0820312 20.664062 0.609375 17.4375 0.609375 Z M 17.46875 -6.03125 C 19.039062 -6.03125 20.304688 -6.488281 21.265625 -7.40625 C 22.222656 -8.332031 22.921875 -9.546875 23.359375 -11.046875 C 23.804688 -12.546875 24.03125 -14.1875 24.03125 -15.96875 C 24.03125 -17.644531 23.828125 -19.226562 23.421875 -20.71875 C 23.023438 -22.207031 22.347656 -23.410156 21.390625 -24.328125 C 20.429688 -25.253906 19.125 -25.71875 17.46875 -25.71875 C 15.894531 -25.71875 14.625 -25.28125 13.65625 -24.40625 C 12.6875 -23.539062 11.972656 -22.367188 11.515625 -20.890625 C 11.066406 -19.410156 10.84375 -17.769531 10.84375 -15.96875 C 10.84375 -14.3125 11.046875 -12.722656 11.453125 -11.203125 C 11.867188 -9.679688 12.554688 -8.4375 13.515625 -7.46875 C 14.472656 -6.507812 15.789062 -6.03125 17.46875 -6.03125 Z M 17.46875 -6.03125 "/></g></g></g><g fill="#00a63d" fill-opacity="1"><g transform="translate(145.306844, 252.335417)"><g/></g></g><g fill="#00a63d" fill-opacity="1"><g transform="translate(156.767643, 252.335417)"><g><path d="M 21.609375 0.609375 C 19.421875 0.609375 17.273438 0.332031 15.171875 -0.21875 C 13.066406 -0.769531 11.144531 -1.597656 9.40625 -2.703125 C 7.664062 -3.804688 6.226562 -5.179688 5.09375 -6.828125 C 3.96875 -8.484375 3.289062 -10.425781 3.0625 -12.65625 L 12.234375 -12.65625 C 12.535156 -11.3125 13.113281 -10.175781 13.96875 -9.25 C 14.832031 -8.332031 15.914062 -7.628906 17.21875 -7.140625 C 18.53125 -6.648438 19.984375 -6.40625 21.578125 -6.40625 C 23.210938 -6.40625 24.703125 -6.609375 26.046875 -7.015625 C 27.398438 -7.421875 28.484375 -8.035156 29.296875 -8.859375 C 30.117188 -9.691406 30.53125 -10.734375 30.53125 -11.984375 C 30.53125 -13.109375 30.195312 -14.023438 29.53125 -14.734375 C 28.863281 -15.453125 27.96875 -16.035156 26.84375 -16.484375 C 25.71875 -16.929688 24.441406 -17.300781 23.015625 -17.59375 L 15.359375 -19.15625 C 12.003906 -19.789062 9.34375 -21.125 7.375 -23.15625 C 5.414062 -25.1875 4.410156 -27.898438 4.359375 -31.296875 C 4.335938 -34.066406 5.078125 -36.46875 6.578125 -38.5 C 8.078125 -40.539062 10.117188 -42.113281 12.703125 -43.21875 C 15.285156 -44.320312 18.179688 -44.875 21.390625 -44.875 C 25.210938 -44.875 28.425781 -44.273438 31.03125 -43.078125 C 33.632812 -41.878906 35.613281 -40.265625 36.96875 -38.234375 C 38.332031 -36.203125 39.035156 -33.941406 39.078125 -31.453125 L 30.09375 -31.453125 C 29.9375 -33.003906 29.46875 -34.238281 28.6875 -35.15625 C 27.90625 -36.070312 26.90625 -36.734375 25.6875 -37.140625 C 24.476562 -37.554688 23.097656 -37.765625 21.546875 -37.765625 C 20.359375 -37.765625 19.28125 -37.628906 18.3125 -37.359375 C 17.34375 -37.097656 16.519531 -36.722656 15.84375 -36.234375 C 15.164062 -35.753906 14.644531 -35.1875 14.28125 -34.53125 C 13.914062 -33.882812 13.734375 -33.148438 13.734375 -32.328125 C 13.734375 -31.046875 14.160156 -30.003906 15.015625 -29.203125 C 15.878906 -28.410156 17.484375 -27.757812 19.828125 -27.25 L 27.4375 -25.6875 C 30.144531 -25.15625 32.300781 -24.367188 33.90625 -23.328125 C 35.507812 -22.285156 36.710938 -21.109375 37.515625 -19.796875 C 38.328125 -18.492188 38.859375 -17.160156 39.109375 -15.796875 C 39.367188 -14.441406 39.5 -13.191406 39.5 -12.046875 C 39.5 -9.648438 38.75 -7.5 37.25 -5.59375 C 35.75 -3.6875 33.660156 -2.175781 30.984375 -1.0625 C 28.304688 0.0507812 25.179688 0.609375 21.609375 0.609375 Z M 21.609375 0.609375 "/></g></g></g><g fill="#00a63d" fill-opacity="1"><g transform="translate(197.739183, 252.335417)"><g><path d="M 17.4375 0.609375 C 14.332031 0.609375 11.628906 -0.0507812 9.328125 -1.375 C 7.035156 -2.707031 5.257812 -4.585938 4 -7.015625 C 2.738281 -9.453125 2.109375 -12.332031 2.109375 -15.65625 C 2.109375 -18.988281 2.738281 -21.898438 4 -24.390625 C 5.257812 -26.890625 7.035156 -28.832031 9.328125 -30.21875 C 11.628906 -31.601562 14.34375 -32.296875 17.46875 -32.296875 C 20.59375 -32.296875 23.300781 -31.617188 25.59375 -30.265625 C 27.882812 -28.910156 29.648438 -26.984375 30.890625 -24.484375 C 32.140625 -21.992188 32.765625 -19.050781 32.765625 -15.65625 C 32.765625 -12.46875 32.15625 -9.65625 30.9375 -7.21875 C 29.71875 -4.78125 27.96875 -2.863281 25.6875 -1.46875 C 23.414062 -0.0820312 20.664062 0.609375 17.4375 0.609375 Z M 17.46875 -6.03125 C 19.039062 -6.03125 20.304688 -6.488281 21.265625 -7.40625 C 22.222656 -8.332031 22.921875 -9.546875 23.359375 -11.046875 C 23.804688 -12.546875 24.03125 -14.1875 24.03125 -15.96875 C 24.03125 -17.644531 23.828125 -19.226562 23.421875 -20.71875 C 23.023438 -22.207031 22.347656 -23.410156 21.390625 -24.328125 C 20.429688 -25.253906 19.125 -25.71875 17.46875 -25.71875 C 15.894531 -25.71875 14.625 -25.28125 13.65625 -24.40625 C 12.6875 -23.539062 11.972656 -22.367188 11.515625 -20.890625 C 11.066406 -19.410156 10.84375 -17.769531 10.84375 -15.96875 C 10.84375 -14.3125 11.046875 -12.722656 11.453125 -11.203125 C 11.867188 -9.679688 12.554688 -8.4375 13.515625 -7.46875 C 14.472656 -6.507812 15.789062 -6.03125 17.46875 -6.03125 Z M 17.46875 -6.03125 "/></g></g></g><g fill="#00a63d" fill-opacity="1"><g transform="translate(231.080215, 252.335417)"><g><path d="M 13.9375 0.546875 C 11.613281 0.546875 9.765625 0.269531 8.390625 -0.28125 C 7.023438 -0.832031 6.015625 -1.5625 5.359375 -2.46875 C 4.703125 -3.375 4.28125 -4.382812 4.09375 -5.5 C 3.914062 -6.613281 3.828125 -7.742188 3.828125 -8.890625 L 3.828125 -45.546875 L 12.59375 -45.546875 L 12.59375 -9.984375 C 12.59375 -8.828125 12.84375 -7.882812 13.34375 -7.15625 C 13.84375 -6.425781 14.789062 -5.984375 16.1875 -5.828125 L 17.6875 -5.734375 L 17.6875 -0.21875 C 17.070312 -0.0078125 16.445312 0.164062 15.8125 0.3125 C 15.175781 0.46875 14.550781 0.546875 13.9375 0.546875 Z M 13.9375 0.546875 "/></g></g></g><g fill="#00a63d" fill-opacity="1"><g transform="translate(249.466692, 252.335417)"><g><path d="M 13.03125 0.609375 C 11 0.609375 9.175781 0.234375 7.5625 -0.515625 C 5.957031 -1.273438 4.679688 -2.375 3.734375 -3.8125 C 2.796875 -5.25 2.328125 -7.003906 2.328125 -9.078125 C 2.328125 -12.546875 3.625 -15.179688 6.21875 -16.984375 C 8.8125 -18.796875 12.910156 -19.734375 18.515625 -19.796875 L 22.46875 -19.859375 L 22.46875 -21.765625 C 22.46875 -23.210938 22.039062 -24.328125 21.1875 -25.109375 C 20.34375 -25.898438 19.03125 -26.285156 17.25 -26.265625 C 15.945312 -26.242188 14.707031 -25.9375 13.53125 -25.34375 C 12.351562 -24.75 11.550781 -23.71875 11.125 -22.25 L 3.671875 -22.25 C 3.796875 -24.539062 4.460938 -26.425781 5.671875 -27.90625 C 6.878906 -29.382812 8.519531 -30.484375 10.59375 -31.203125 C 12.664062 -31.929688 15.019531 -32.296875 17.65625 -32.296875 C 20.90625 -32.296875 23.507812 -31.890625 25.46875 -31.078125 C 27.425781 -30.273438 28.84375 -29.125 29.71875 -27.625 C 30.601562 -26.125 31.046875 -24.34375 31.046875 -22.28125 L 31.046875 0 L 23.5625 0 L 22.828125 -5.453125 C 21.742188 -3.160156 20.390625 -1.578125 18.765625 -0.703125 C 17.140625 0.171875 15.226562 0.609375 13.03125 0.609375 Z M 16.03125 -5.265625 C 16.84375 -5.265625 17.628906 -5.410156 18.390625 -5.703125 C 19.160156 -6.003906 19.847656 -6.40625 20.453125 -6.90625 C 21.054688 -7.40625 21.539062 -7.972656 21.90625 -8.609375 C 22.28125 -9.242188 22.46875 -9.898438 22.46875 -10.578125 L 22.46875 -15.265625 L 19.25 -15.203125 C 17.757812 -15.179688 16.367188 -15 15.078125 -14.65625 C 13.785156 -14.320312 12.742188 -13.773438 11.953125 -13.015625 C 11.171875 -12.265625 10.78125 -11.242188 10.78125 -9.953125 C 10.78125 -8.484375 11.289062 -7.332031 12.3125 -6.5 C 13.34375 -5.675781 14.582031 -5.265625 16.03125 -5.265625 Z M 16.03125 -5.265625 "/></g></g></g><g fill="#00a63d" fill-opacity="1"><g transform="translate(283.083527, 252.335417)"><g><path d="M 3.828125 0 L 3.828125 -31.6875 L 12.4375 -31.6875 L 12.4375 -24.1875 C 12.945312 -25.800781 13.664062 -27.210938 14.59375 -28.421875 C 15.53125 -29.640625 16.660156 -30.585938 17.984375 -31.265625 C 19.316406 -31.953125 20.820312 -32.296875 22.5 -32.296875 C 22.78125 -32.296875 23.046875 -32.28125 23.296875 -32.25 C 23.554688 -32.226562 23.75 -32.1875 23.875 -32.125 L 23.875 -23.59375 C 23.6875 -23.675781 23.460938 -23.726562 23.203125 -23.75 C 22.953125 -23.769531 22.726562 -23.789062 22.53125 -23.8125 C 20.769531 -23.957031 19.265625 -23.90625 18.015625 -23.65625 C 16.773438 -23.414062 15.765625 -23 14.984375 -22.40625 C 14.210938 -21.8125 13.648438 -21.082031 13.296875 -20.21875 C 12.953125 -19.363281 12.78125 -18.40625 12.78125 -17.34375 L 12.78125 0 Z M 3.828125 0 "/></g></g></g></svg>